# xmcd
#
# Track frame offsets:
#	150
#	18640
#	38413
#	65622
#	88557
#	106009
#	132998
#	157406
#	182377
#	203713
#	227495
#
# Disc length: 3338 seconds
# Revision: 1
# Processed by: cddbd v1.5.2PL0 Copyright (c) Steve Scherf et al.
# Submitted via: dBpowerAMP V12.0
#
DISCID=860d080b
DTITLE=Zac Harmon - Music Is Medicine
DYEAR=2012
DGENRE=Blues
TTITLE0=Miss American Girl
TTITLE1=Blue Pill Thrill
TTITLE2=Running from the Devil
TTITLE3=Grandma's Prayer
TTITLE4=Drowning in Hollywood
TTITLE5=Country Boy
TTITLE6=I'd Rather Be with You
TTITLE7=Talk to Me
TTITLE8=Wounded
TTITLE9=I'm a Healer
TTITLE10=Joanna
EXTD=
EXTT0=
EXTT1=
EXTT2=
EXTT3=
EXTT4=
EXTT5=
EXTT6=
EXTT7=
EXTT8=
EXTT9=
EXTT10=
PLAYORDER=
